<?xml version="1.0" standalone="no"?>
<!DOCTYPE svg PUBLIC "-//W3C//DTD SVG 20010904//EN"
 "http://www.w3.org/TR/2001/REC-SVG-20010904/DTD/svg10.dtd">
<svg version="1.0" xmlns="http://www.w3.org/2000/svg"
 width="1000.000000pt" height="965.000000pt" viewBox="0 0 1000.000000 965.000000"
 preserveAspectRatio="xMidYMid meet">
<metadata>
Created by potrace 1.16, written by Peter Selinger 2001-2019
</metadata>
<g transform="translate(0.000000,965.000000) scale(0.100000,-0.100000)"
fill="#2563EB" stroke="none">
<path d="M0 4825 l0 -4825 5000 0 5000 0 0 4825 0 4825 -5000 0 -5000 0 0
-4825z m6748 1555 c17 0 32 -4 32 -9 0 -5 -15 -27 -32 -49 -18 -22 -53 -65
-77 -96 l-44 -56 -836 0 -836 0 -22 -35 c-13 -19 -23 -39 -23 -45 0 -7 274
-10 824 -10 552 0 827 -3 831 -10 18 -29 -9 -72 -88 -140 l-82 -70 -821 0
-820 0 -17 -35 c-9 -20 -17 -40 -17 -45 0 -6 287 -10 786 -10 l786 0 -6 -22
c-3 -13 -6 -28 -6 -35 0 -7 -41 -46 -91 -88 l-91 -75 -764 0 c-744 0 -764 0
-774 -19 -5 -11 -15 -32 -20 -47 l-11 -27 682 6 681 6 -6 -41 c-8 -51 -10 -52
-99 -125 l-70 -58 -679 -3 -678 -2 -15 -36 c-8 -20 -12 -40 -9 -45 3 -5 238
-9 544 -9 296 0 541 -3 543 -7 3 -5 -3 -27 -12 -50 -13 -33 -32 -54 -91 -95
l-75 -53 -527 -5 c-289 -3 -528 -7 -531 -10 -12 -14 -28 -52 -23 -57 3 -3 268
-9 588 -14 321 -5 793 -12 1049 -15 l467 -7 32 23 c31 22 32 24 25 80 -6 48
-3 65 15 99 11 23 25 41 30 39 16 -6 91 -103 97 -126 11 -44 -5 -104 -43 -159
-63 -91 -56 -90 -508 -98 -215 -3 -394 -9 -399 -12 -5 -3 36 -51 91 -107 65
-66 103 -112 107 -131 4 -17 10 -41 15 -55 5 -14 16 -51 25 -82 19 -70 62
-121 118 -142 34 -13 58 -14 122 -7 59 6 85 5 100 -4 11 -7 99 -112 195 -234
195 -247 183 -221 196 -418 l7 -113 -282 0 -281 0 1 23 c0 12 21 65 47 117
l47 95 45 3 c76 5 77 7 7 80 -36 37 -77 81 -91 98 -24 30 -32 32 -128 43 -57
6 -142 16 -189 21 -48 6 -108 10 -135 10 -27 1 -58 6 -70 13 -11 7 -87 85
-168 174 -138 150 -153 164 -215 189 -36 15 -71 32 -77 36 -7 5 -86 13 -175
18 -156 9 -295 5 -549 -19 -47 -4 -93 -6 -102 -3 -30 7 -29 34 1 81 22 33 27
49 19 58 -15 18 -38 16 -85 -7 -34 -16 -47 -32 -84 -102 -40 -79 -43 -89 -51
-198 -9 -127 -6 -122 -112 -203 -44 -34 -166 -186 -232 -288 -45 -71 -157
-216 -179 -231 -5 -4 -144 -8 -307 -8 -232 0 -298 3 -298 13 2 42 51 150 89
194 l44 50 143 7 c79 4 150 9 157 12 6 2 38 42 69 87 31 45 102 147 158 226
l102 144 -9 246 c-8 229 -8 250 10 311 20 66 31 80 142 179 22 20 88 79 145
132 58 52 118 106 133 120 16 13 76 100 134 194 59 93 161 258 228 365 122
195 361 582 404 653 13 21 28 43 35 50 10 9 221 12 947 10 514 -1 949 -3 967
-3z m-2012 -26 c-9 -24 -536 -853 -546 -859 -4 -3 -15 14 -23 37 -8 24 -26 72
-39 108 -31 82 -28 92 23 84 44 -7 47 0 29 68 -9 31 -7 44 9 75 20 40 179 307
255 431 l45 72 127 0 c112 0 125 -2 120 -16z m-442 -2 c3 -5 -80 -72 -185
-151 -104 -78 -189 -147 -189 -152 0 -6 41 -60 90 -121 50 -61 90 -116 90
-123 0 -12 -41 -35 -64 -35 -8 0 -19 -6 -25 -14 -9 -10 -1 -32 38 -97 48 -83
49 -86 57 -191 l7 -107 -43 -73 c-24 -40 -53 -90 -66 -110 -13 -20 -113 -116
-224 -213 -120 -105 -200 -183 -200 -194 0 -10 -3 -21 -7 -24 -3 -4 -15 -31
-25 -59 -16 -44 -19 -80 -18 -211 0 -104 -3 -158 -10 -155 -5 1 -68 58 -139
125 l-128 122 -43 108 c-24 59 -51 127 -61 150 -16 35 -18 58 -13 150 6 111
20 210 34 228 4 6 21 35 37 65 87 160 107 196 116 211 12 20 3 47 -19 56 -9 3
-59 -16 -121 -48 l-104 -54 -45 50 c-58 65 -57 75 10 75 53 0 55 1 110 61 69
74 71 93 14 153 -47 48 -93 66 -169 66 -59 0 -84 -20 -108 -85 -10 -27 -23
-51 -29 -53 -5 -1 -33 28 -63 65 -47 61 -54 74 -57 125 -4 56 -3 58 46 121 28
35 58 69 66 76 8 7 72 17 142 23 l128 11 89 59 c49 32 94 58 101 58 12 0 211
24 341 41 44 6 112 14 150 19 39 4 131 16 205 25 74 10 164 21 200 25 36 4 68
8 72 9 4 0 9 -3 12 -7z m-962 -1929 c173 -172 187 -188 162 -191 -31 -4 -186
32 -249 57 -11 5 -33 14 -48 20 -15 6 -56 11 -91 11 l-63 0 -59 -62 c-33 -35
-77 -84 -97 -109 -37 -46 -100 -82 -165 -95 -25 -5 -31 0 -60 46 -18 28 -32
59 -32 68 0 9 12 57 27 106 27 85 31 92 111 172 46 46 89 84 97 84 13 0 75 18
190 56 39 13 74 23 79 24 6 0 95 -84 198 -187z m1671 -216 c182 -84 176 -69
68 -162 -50 -43 -91 -83 -91 -89 0 -5 -5 -60 -11 -121 l-12 -111 -141 -89
c-106 -67 -159 -109 -215 -167 l-74 -78 -284 0 c-196 0 -283 3 -283 11 0 6 37
55 81 110 57 69 88 99 103 99 28 0 127 -17 148 -25 11 -5 54 25 145 100 167
139 162 133 152 192 -36 223 -37 278 -9 327 l21 34 97 7 c53 3 106 7 117 9 54
9 80 2 188 -47z m271 -385 c2 -4 -11 -29 -30 -55 l-34 -47 -110 0 c-122 0
-116 -4 -104 73 l7 37 133 0 c73 0 135 -3 138 -8z m1636 -8 c0 -13 -44 -100
-54 -106 -6 -4 -85 -8 -176 -8 l-165 0 -27 44 c-50 79 -58 76 197 76 124 0
225 -2 225 -6z m-1564 -159 c3 -8 -9 -35 -27 -60 l-32 -45 -249 0 c-192 0
-248 3 -248 13 0 6 33 33 73 59 l72 46 203 1 c169 1 204 -1 208 -14z m1759 5
c4 -6 -9 -32 -27 -58 l-34 -47 -235 -3 c-129 -1 -244 0 -256 3 -20 5 -23 12
-23 54 0 30 5 51 13 54 25 11 556 7 562 -3z m-1485 -159 c0 -4 -24 -31 -54
-60 l-55 -51 -445 0 c-328 0 -447 3 -452 12 -4 7 14 30 47 59 l54 48 453 1
c248 0 452 -4 452 -9z m1810 2 c0 -4 -23 -31 -52 -60 l-52 -53 -386 0 c-287 0
-389 3 -398 12 -7 7 -12 34 -12 60 l0 48 450 0 c248 0 450 -3 450 -7z m-3676
-11 c2 -4 -1 -28 -6 -54 -9 -39 -16 -48 -37 -53 -34 -7 -191 -3 -197 6 -4 8
49 78 73 97 18 13 159 17 167 4z m-509 -601 c22 -10 49 -27 60 -37 33 -30 67
-83 60 -94 -3 -5 -29 -10 -57 -10 -42 0 -56 5 -85 30 -66 58 -155 32 -189 -55
-16 -42 -16 -48 0 -89 22 -56 52 -76 116 -76 48 0 100 21 100 41 0 4 -28 9
-62 11 l-63 3 -3 43 -3 42 78 1 c43 0 100 1 126 1 65 1 73 -9 57 -69 -16 -60
-50 -106 -103 -141 -37 -24 -52 -27 -127 -27 -82 0 -88 2 -135 35 -55 39 -104
121 -105 176 -1 163 187 284 335 215z m501 -201 c46 -118 84 -218 84 -222 0
-5 -27 -8 -60 -8 -59 0 -61 1 -66 30 l-6 30 -82 0 c-81 0 -82 0 -93 -30 -11
-28 -14 -30 -67 -30 -31 0 -56 4 -56 10 0 8 7 27 31 85 9 21 114 290 130 331
8 22 14 25 55 22 l46 -3 84 -215z m382 205 c104 -42 113 -232 13 -276 -17 -8
-31 -16 -31 -19 0 -3 23 -32 50 -65 28 -33 50 -63 50 -67 0 -4 -26 -8 -58 -8
l-59 0 -47 61 c-26 33 -50 58 -54 54 -4 -4 -7 -30 -7 -58 l0 -52 -52 -3 -53
-3 0 225 0 226 105 0 c71 0 117 -5 143 -15z m415 -88 c21 -56 42 -111 46 -122
9 -20 37 -93 51 -130 4 -11 13 -33 19 -48 17 -44 15 -47 -48 -47 -58 0 -60 1
-66 30 l-7 30 -79 0 c-80 0 -80 0 -90 -30 -11 -29 -13 -30 -71 -30 -57 0 -59
1 -52 23 7 22 77 205 93 242 5 11 24 57 42 103 l33 82 45 0 46 0 38 -103z
m467 76 c60 -31 116 -93 107 -117 -5 -12 -20 -16 -56 -16 -41 0 -55 5 -83 30
-48 44 -105 42 -155 -4 -35 -32 -37 -37 -38 -96 0 -57 2 -64 33 -91 27 -24 41
-29 85 -29 50 0 97 19 97 40 0 5 -26 10 -57 12 l-58 3 -3 43 c-4 48 -14 44
123 44 143 0 135 2 135 -34 0 -41 -30 -104 -64 -140 -41 -43 -85 -61 -161 -66
-63 -3 -76 -1 -125 25 -40 21 -63 42 -84 76 -123 199 94 427 304 320z m448
-20 l-3 -48 -68 -3 -68 -3 3 -37 3 -37 65 -5 65 -5 0 -45 0 -45 -67 -3 -68 -3
0 -34 0 -34 68 -3 67 -3 3 -47 3 -48 -125 0 -126 0 0 225 0 225 126 0 125 0
-3 -47z m492 42 c0 -2 -18 -32 -40 -67 l-39 -63 44 -12 c65 -20 105 -72 105
-140 0 -105 -72 -169 -182 -161 -92 7 -158 71 -158 153 0 53 10 77 85 198 l60
96 63 1 c34 0 62 -2 62 -5z m384 -7 c-4 -7 -23 -36 -41 -65 -18 -29 -33 -54
-33 -56 0 -3 16 -8 35 -11 47 -9 102 -62 110 -109 28 -145 -117 -244 -255
-174 -58 29 -85 75 -84 142 1 46 9 64 75 168 l74 117 63 0 c48 0 61 -3 56 -12z
m353 -4 c19 -9 46 -33 61 -52 23 -31 27 -45 26 -104 0 -68 0 -69 -71 -171
l-70 -102 -67 -3 -67 -3 42 56 c34 46 40 58 28 66 -8 5 -22 9 -31 9 -10 0 -33
14 -53 31 -82 72 -64 217 33 269 46 24 122 26 169 4z m348 -209 l0 -220 -57
-3 -58 -3 -2 178 -3 178 -32 3 c-32 3 -33 5 -33 48 l0 45 93 -3 92 -3 0 -220z"/>
<path d="M3313 6101 c-13 -11 -23 -21 -23 -24 0 -3 16 -12 36 -22 35 -16 36
-16 61 7 14 12 29 31 34 41 9 15 4 17 -38 17 -32 -1 -56 -7 -70 -19z"/>
<path d="M3604 2734 c-3 -10 -10 -30 -14 -44 -5 -14 -10 -36 -12 -50 -3 -22 1
-25 31 -28 48 -5 54 7 35 69 -21 65 -31 79 -40 53z"/>
<path d="M3988 2758 c-6 -77 -1 -88 37 -88 49 0 79 29 78 76 -1 46 -22 64 -74
64 l-37 0 -4 -52z"/>
<path d="M4445 2738 c-29 -87 -33 -117 -18 -122 22 -9 61 -7 67 2 7 11 -26
132 -36 132 -5 0 -10 -6 -13 -12z"/>
<path d="M5812 2654 c-44 -30 -18 -94 38 -94 36 0 59 22 60 57 0 23 -34 53
-60 53 -9 0 -26 -7 -38 -16z"/>
<path d="M6197 2652 c-20 -22 -22 -63 -5 -80 18 -18 73 -14 91 6 23 25 21 47
-5 72 -27 25 -60 26 -81 2z"/>
<path d="M6561 2786 c-43 -46 4 -119 62 -97 47 18 60 68 27 101 -27 27 -62 25
-89 -4z"/>
</g>
</svg>
